<?xml version="1.0" standalone="no"?>
<!DOCTYPE svg PUBLIC "-//W3C//DTD SVG 20010904//EN"
 "http://www.w3.org/TR/2001/REC-SVG-20010904/DTD/svg10.dtd">
<svg version="1.0" xmlns="http://www.w3.org/2000/svg"
 width="200.000000pt" height="200.000000pt" viewBox="0 0 200.000000 200.000000"
 preserveAspectRatio="xMidYMid meet">

<g transform="translate(0.000000,200.000000) scale(0.100000,-0.100000)"
fill="#000000" stroke="none">
<path d="M630 1870 l0 -30 365 0 365 0 0 -330 c0 -330 0 -331 20 -320 12 6 30
8 40 5 20 -6 20 0 20 334 0 295 -2 342 -16 355 -13 14 -64 16 -405 16 l-389 0
0 -30z"/>
<path d="M1040 1388 c-62 -14 -69 -22 -60 -64 5 -20 11 -38 13 -41 3 -3 34 1
69 9 l63 14 -3 34 c-2 32 -18 61 -31 59 -3 -1 -26 -6 -51 -11z m33 -38 c6 0 4
-7 -5 -16 -18 -18 -38 -11 -38 13 0 10 6 13 16 9 9 -3 21 -6 27 -6z"/>
<path d="M630 561 l0 -91 393 0 c292 0 396 3 405 12 14 14 16 126 2 148 -8 13
-66 15 -405 18 l-395 3 0 -90z m297 19 c24 -49 -37 -92 -78 -54 -23 21 -24 42
-2 66 23 26 64 20 80 -12z"/>
</g>
</svg>
